<svg width="6" height="395" viewBox="0 0 6 395" fill="none" xmlns="http://www.w3.org/2000/svg">
<path d="M5 8.5C5 10.7647 4.67444 12.772 4.17833 14.1776C3.92869 14.8849 3.65454 15.3862 3.39993 15.6913C3.14165 16.0009 3.00188 16 3.00002 16H3H2.99998C2.99811 16 2.85835 16.0009 2.60007 15.6913C2.34546 15.3862 2.07131 14.8849 1.82167 14.1776C1.32556 12.772 1 10.7647 1 8.5C1 6.23531 1.32556 4.22805 1.82167 2.82241C2.07131 2.11509 2.34546 1.61378 2.60007 1.30866C2.85835 0.999135 2.99812 0.999988 2.99998 1L3 1L3.00002 1C3.00188 0.999988 3.14165 0.999134 3.39993 1.30866C3.65454 1.61378 3.92869 2.11509 4.17833 2.82241C4.67444 4.22805 5 6.23531 5 8.5Z" stroke="white" stroke-width="2"/>
<path d="M5 50.5C5 52.7647 4.67444 54.772 4.17833 56.1776C3.92869 56.8849 3.65454 57.3862 3.39993 57.6913C3.14165 58.0009 3.00188 58 3.00002 58H3H2.99998C2.99811 58 2.85835 58.0009 2.60007 57.6913C2.34546 57.3862 2.07131 56.8849 1.82167 56.1776C1.32556 54.772 1 52.7647 1 50.5C1 48.2353 1.32556 46.228 1.82167 44.8224C2.07131 44.1151 2.34546 43.6138 2.60007 43.3087C2.85835 42.9991 2.99812 43 2.99998 43L3 43L3.00002 43C3.00188 43 3.14165 42.9991 3.39993 43.3087C3.65454 43.6138 3.92869 44.1151 4.17833 44.8224C4.67444 46.228 5 48.2353 5 50.5Z" stroke="white" stroke-width="2"/>
<path d="M5 92.5C5 94.7647 4.67444 96.772 4.17833 98.1776C3.92869 98.8849 3.65454 99.3862 3.39993 99.6913C3.14165 100.001 3.00188 100 3.00002 100H3H2.99998C2.99811 100 2.85835 100.001 2.60007 99.6913C2.34546 99.3862 2.07131 98.8849 1.82167 98.1776C1.32556 96.772 1 94.7647 1 92.5C1 90.2353 1.32556 88.228 1.82167 86.8224C2.07131 86.1151 2.34546 85.6138 2.60007 85.3087C2.85835 84.9991 2.99812 85 2.99998 85L3 85L3.00002 85C3.00188 85 3.14165 84.9991 3.39993 85.3087C3.65454 85.6138 3.92869 86.1151 4.17833 86.8224C4.67444 88.228 5 90.2353 5 92.5Z" stroke="white" stroke-width="2"/>
<path d="M5 134.5C5 136.765 4.67444 138.772 4.17833 140.178C3.92869 140.885 3.65454 141.386 3.39993 141.691C3.14165 142.001 3.00188 142 3.00002 142H3H2.99998C2.99811 142 2.85835 142.001 2.60007 141.691C2.34546 141.386 2.07131 140.885 1.82167 140.178C1.32556 138.772 1 136.765 1 134.5C1 132.235 1.32556 130.228 1.82167 128.822C2.07131 128.115 2.34546 127.614 2.60007 127.309C2.85835 126.999 2.99812 127 2.99998 127L3 127L3.00002 127C3.00188 127 3.14165 126.999 3.39993 127.309C3.65454 127.614 3.92869 128.115 4.17833 128.822C4.67444 130.228 5 132.235 5 134.5Z" stroke="white" stroke-width="2"/>
<path d="M5 176.5C5 178.765 4.67444 180.772 4.17833 182.178C3.92869 182.885 3.65454 183.386 3.39993 183.691C3.14165 184.001 3.00188 184 3.00002 184H3H2.99998C2.99811 184 2.85835 184.001 2.60007 183.691C2.34546 183.386 2.07131 182.885 1.82167 182.178C1.32556 180.772 1 178.765 1 176.5C1 174.235 1.32556 172.228 1.82167 170.822C2.07131 170.115 2.34546 169.614 2.60007 169.309C2.85835 168.999 2.99812 169 2.99998 169L3 169L3.00002 169C3.00188 169 3.14165 168.999 3.39993 169.309C3.65454 169.614 3.92869 170.115 4.17833 170.822C4.67444 172.228 5 174.235 5 176.5Z" stroke="white" stroke-width="2"/>
<path d="M5 218.5C5 220.765 4.67444 222.772 4.17833 224.178C3.92869 224.885 3.65454 225.386 3.39993 225.691C3.14165 226.001 3.00188 226 3.00002 226H3H2.99998C2.99811 226 2.85835 226.001 2.60007 225.691C2.34546 225.386 2.07131 224.885 1.82167 224.178C1.32556 222.772 1 220.765 1 218.5C1 216.235 1.32556 214.228 1.82167 212.822C2.07131 212.115 2.34546 211.614 2.60007 211.309C2.85835 210.999 2.99812 211 2.99998 211L3 211L3.00002 211C3.00188 211 3.14165 210.999 3.39993 211.309C3.65454 211.614 3.92869 212.115 4.17833 212.822C4.67444 214.228 5 216.235 5 218.5Z" stroke="white" stroke-width="2"/>
<path d="M5 260.5C5 262.765 4.67444 264.772 4.17833 266.178C3.92869 266.885 3.65454 267.386 3.39993 267.691C3.14165 268.001 3.00188 268 3.00002 268H3H2.99998C2.99811 268 2.85835 268.001 2.60007 267.691C2.34546 267.386 2.07131 266.885 1.82167 266.178C1.32556 264.772 1 262.765 1 260.5C1 258.235 1.32556 256.228 1.82167 254.822C2.07131 254.115 2.34546 253.614 2.60007 253.309C2.85835 252.999 2.99812 253 2.99998 253L3 253L3.00002 253C3.00188 253 3.14165 252.999 3.39993 253.309C3.65454 253.614 3.92869 254.115 4.17833 254.822C4.67444 256.228 5 258.235 5 260.5Z" stroke="white" stroke-width="2"/>
<path d="M5 302.5C5 304.765 4.67444 306.772 4.17833 308.178C3.92869 308.885 3.65454 309.386 3.39993 309.691C3.14165 310.001 3.00188 310 3.00002 310H3H2.99998C2.99811 310 2.85835 310.001 2.60007 309.691C2.34546 309.386 2.07131 308.885 1.82167 308.178C1.32556 306.772 1 304.765 1 302.5C1 300.235 1.32556 298.228 1.82167 296.822C2.07131 296.115 2.34546 295.614 2.60007 295.309C2.85835 294.999 2.99812 295 2.99998 295L3 295L3.00002 295C3.00188 295 3.14165 294.999 3.39993 295.309C3.65454 295.614 3.92869 296.115 4.17833 296.822C4.67444 298.228 5 300.235 5 302.5Z" stroke="white" stroke-width="2"/>
<path d="M5 344.5C5 346.765 4.67444 348.772 4.17833 350.178C3.92869 350.885 3.65454 351.386 3.39993 351.691C3.14165 352.001 3.00188 352 3.00002 352H3H2.99998C2.99811 352 2.85835 352.001 2.60007 351.691C2.34546 351.386 2.07131 350.885 1.82167 350.178C1.32556 348.772 1 346.765 1 344.5C1 342.235 1.32556 340.228 1.82167 338.822C2.07131 338.115 2.34546 337.614 2.60007 337.309C2.85835 336.999 2.99812 337 2.99998 337L3 337L3.00002 337C3.00188 337 3.14165 336.999 3.39993 337.309C3.65454 337.614 3.92869 338.115 4.17833 338.822C4.67444 340.228 5 342.235 5 344.5Z" stroke="white" stroke-width="2"/>
<path d="M5 386.5C5 388.765 4.67444 390.772 4.17833 392.178C3.92869 392.885 3.65454 393.386 3.39993 393.691C3.14165 394.001 3.00188 394 3.00002 394H3H2.99998C2.99811 394 2.85835 394.001 2.60007 393.691C2.34546 393.386 2.07131 392.885 1.82167 392.178C1.32556 390.772 1 388.765 1 386.5C1 384.235 1.32556 382.228 1.82167 380.822C2.07131 380.115 2.34546 379.614 2.60007 379.309C2.85835 378.999 2.99812 379 2.99998 379L3 379L3.00002 379C3.00188 379 3.14165 378.999 3.39993 379.309C3.65454 379.614 3.92869 380.115 4.17833 380.822C4.67444 382.228 5 384.235 5 386.5Z" stroke="white" stroke-width="2"/>
</svg>
